<?xml version="1.0" encoding="UTF-8" standalone="no"?>
<!DOCTYPE svg PUBLIC "-//W3C//DTD SVG 20010904//EN"
              "http://www.w3.org/TR/2001/REC-SVG-20010904/DTD/svg10.dtd">

<svg xmlns="http://www.w3.org/2000/svg"
     width="138.889mm" height="115.608mm"
     viewBox="0 0 525 437">
  <path id="Unnamed #2"
        fill="none" stroke="black" stroke-width="1"
        d="M 289.27,253.27
        
           C 289.27,253.27 295.09,261.64 295.09,261.64
             295.09,261.64 301.82,265.45 301.82,265.45M 277.82,264.00

           C 277.82,264.00 284.73,277.09 284.55,277.09
             284.36,277.09 301.64,285.09 301.64,285.09M 234.55,149.27

           C 234.55,149.27 265.82,143.27 265.82,143.27
             265.82,143.27 301.64,156.36 301.64,156.36M 248.55,185.09

           C 248.55,185.09 270.18,174.55 270.18,174.55
             270.18,174.55 301.82,178.55 301.82,178.55M 251.64,222.36

           C 251.64,222.36 270.91,205.27 270.91,205.27
             270.91,205.27 300.36,201.27 300.36,201.27" />
</svg>
